<?xml version="1.0" standalone="no"?>
<!DOCTYPE svg PUBLIC "-//W3C//DTD SVG 20010904//EN"
 "http://www.w3.org/TR/2001/REC-SVG-20010904/DTD/svg10.dtd">
<svg version="1.0" xmlns="http://www.w3.org/2000/svg"
 width="269.000000pt" height="326.000000pt" viewBox="0 0 269.000000 326.000000"
 preserveAspectRatio="xMidYMid meet">

<g transform="translate(0.000000,326.000000) scale(0.100000,-0.100000)"
fill="#000000" stroke="none">
<path d="M1260 3253 c-36 -2 -109 -8 -162 -14 l-98 -11 -150 -177 -150 -176 0
-112 0 -113 325 0 325 0 0 -45 0 -45 -459 0 -459 0 -197 -232 c-109 -127 -205
-244 -212 -259 -22 -44 -18 -261 7 -390 45 -234 110 -344 235 -401 43 -19 71
-23 197 -26 l146 -4 4 193 c3 193 3 194 34 260 36 75 87 137 151 180 91 63 90
63 538 69 393 5 412 6 457 27 66 30 133 96 165 162 l28 56 0 385 0 385 -26 55
c-57 119 -168 191 -334 214 -104 15 -254 23 -365 19z m-233 -198 c40 -11 73
-62 73 -112 0 -78 -53 -133 -128 -133 -95 0 -154 130 -94 208 19 25 87 53 112
47 8 -2 25 -6 37 -10z"/>
</g>
</svg>
